<svg width="40" height="40" viewBox="0 0 40 40" fill="none" xmlns="http://www.w3.org/2000/svg">
<path d="M13.3693 27.9998L19.9972 34.6277L26.6251 27.9998L19.9972 21.3719L13.3693 27.9998Z" fill="#AD2576"/>
<path d="M16.9134 24.4385C18.6071 22.4812 18.3934 19.5215 16.436 17.8278C14.4787 16.1341 11.519 16.3479 9.82534 18.3052C8.13166 20.2625 8.34537 23.2222 10.3027 24.9159C12.26 26.6095 15.2197 26.3958 16.9134 24.4385Z" fill="#206BDB"/>
<path d="M19.9998 8.11481L13.3719 14.7427L26.6277 27.9985L33.2556 21.3706L19.9998 8.11481Z" fill="#9FE57D"/>
<path d="M6.74461 8.11571C3.08513 11.7752 3.08513 17.7116 6.74461 21.3711L20 8.11571C16.3405 4.45622 10.4041 4.45622 6.74461 8.11571Z" fill="#FB5D5D"/>
<path d="M33.2554 8.11571C29.5959 4.45622 23.6595 4.45622 20 8.11571C16.3405 11.7752 16.3405 17.7116 20 21.3711C23.6595 25.0306 29.5959 25.0306 33.2554 21.3711C36.9149 17.7116 36.9149 11.7752 33.2554 8.11571Z" fill="#206BDB"/>
</svg>
